<svg width="16" height="16" viewBox="0 0 16 16" fill="none" xmlns="http://www.w3.org/2000/svg">
<path d="M9.62665 12.6999L10.64 13.7132L12.6666 11.6865" stroke="white" stroke-width="1.5" stroke-linecap="round" stroke-linejoin="round"/>
<path d="M8.10667 7.24634C8.04 7.23968 7.96 7.23968 7.88667 7.24634C6.3 7.19301 5.04 5.89301 5.04 4.29301C5.03334 2.65967 6.36 1.33301 7.99334 1.33301C9.62667 1.33301 10.9533 2.65967 10.9533 4.29301C10.9533 5.89301 9.68667 7.19301 8.10667 7.24634Z" stroke="white" stroke-width="1.5" stroke-linecap="round" stroke-linejoin="round"/>
<path d="M7.99336 14.5404C6.78003 14.5404 5.57336 14.2338 4.65336 13.6204C3.04003 12.5404 3.04003 10.7804 4.65336 9.70711C6.48669 8.48044 9.49336 8.48044 11.3267 9.70711" stroke="white" stroke-width="1.5" stroke-linecap="round" stroke-linejoin="round"/>
</svg>
