<svg width="512" height="512" viewBox="0 0 512 512" fill="none" xmlns="http://www.w3.org/2000/svg">
<g clip-path="url(#clip0_1182_9016)">
<path d="M404.645 338.58C381.878 338.58 363.355 357.103 363.355 379.87C363.355 392.778 369.581 404.975 379.871 412.729V462.451H429.419V412.729C439.709 404.975 445.935 392.778 445.935 379.87C445.935 357.103 427.413 338.58 404.645 338.58ZM417.007 401.184L412.903 403.571V445.935H396.387V403.571L392.283 401.184C384.512 396.659 379.871 388.69 379.871 379.87C379.871 366.212 390.986 355.096 404.645 355.096C418.304 355.096 429.419 366.212 429.419 379.87C429.419 388.69 424.778 396.659 417.007 401.184Z" fill="#415094"/>
<path d="M424.58 0H49.5484V90.8387H41.2903C18.5228 90.8387 0 109.362 0 132.129V512H512V181.677V173.419V87.4199L424.58 0ZM429.419 28.193L483.807 82.5806H429.419V28.193ZM462.452 99.0968V173.419H173.419V132.129C173.419 109.362 154.897 90.8387 132.129 90.8387H99.0968V49.5484H412.903V99.0968H462.452ZM66.0645 16.5161H412.903V33.0323H82.5806V90.8387H66.0645V16.5161ZM495.484 495.484H461.593C475.285 486.871 486.871 475.285 495.484 461.593V495.484ZM404.645 495.484C354.56 495.484 313.806 454.73 313.806 404.645C313.806 354.56 354.56 313.806 404.645 313.806C454.73 313.806 495.484 354.56 495.484 404.645C495.484 454.73 454.73 495.484 404.645 495.484ZM404.645 239.484C377.319 239.484 355.097 261.706 355.097 289.032V309.504C349.25 312.559 343.734 316.16 338.581 320.198V289.032C338.581 252.606 368.219 222.968 404.645 222.968C441.071 222.968 470.71 252.606 470.71 289.032V320.206C465.557 316.16 460.04 312.568 454.194 309.512V289.032C454.194 261.706 431.971 239.484 404.645 239.484ZM437.677 289.032V302.542C427.264 299.165 416.173 297.29 404.645 297.29C393.117 297.29 382.026 299.165 371.613 302.542V289.032C371.613 270.815 386.428 256 404.645 256C422.862 256 437.677 270.815 437.677 289.032ZM495.484 347.698C492.957 343.676 490.248 339.786 487.226 336.145V289.032C487.226 243.497 450.18 206.452 404.645 206.452C359.11 206.452 322.065 243.497 322.065 289.032V336.145C306.605 354.75 297.29 378.624 297.29 404.645C297.29 442.905 317.481 476.466 347.698 495.484H16.5161V132.129C16.5161 118.47 27.6315 107.355 41.2903 107.355H132.129C145.788 107.355 156.903 118.47 156.903 132.129V189.935H495.484V347.698ZM495.484 173.419H478.968V99.0968H495.484V173.419Z" fill="#415094"/>
<path d="M445.936 140.387H429.419V156.903H445.936V140.387Z" fill="#415094"/>
<path d="M412.903 140.387H189.936V156.903H412.903V140.387Z" fill="#415094"/>
<path d="M289.032 272.516H49.5483V289.032H289.032V272.516Z" fill="#415094"/>
<path d="M256 305.549H49.5483V322.065H256V305.549Z" fill="#415094"/>
<path d="M289.032 305.549H272.516V322.065H289.032V305.549Z" fill="#415094"/>
</g>
<defs>
<clipPath id="clip0_1182_9016">
<rect width="512" height="512" fill="white"/>
</clipPath>
</defs>
</svg>
